<svg id="fa4a0469-3cf1-40fd-9cc7-a60859653da4" data-name="Layer 1" xmlns="http://www.w3.org/2000/svg" viewBox="0 0 635.01 177.68"><defs><style>.f079f083-4e5c-40b4-b24b-d91ccb4ac5b3{fill:#fefefe;}.b7a4b09b-5c7b-48cb-859d-08b5b51837a6{fill:#01a2fe;}.ad4bea45-faee-4e4c-8cef-0bfd86bf86a1{fill:#00a2fe;}.ab7c7ec2-428c-4c37-9a7c-c33cb0764a02{fill:#a3a3a3;}</style></defs><title>secured-by-malcare</title><path class="f079f083-4e5c-40b4-b24b-d91ccb4ac5b3" d="M317.5,177.6q-156.81,0-313.61.08C.72,177.68,0,177,0,173.8Q.17,88.63,0,3.46C0,.57.57,0,3.46,0q314,.14,628.09,0c2.89,0,3.46.57,3.46,3.46q-.16,85.38,0,170.76c0,2.89-.57,3.46-3.46,3.46Q474.53,177.53,317.5,177.6Z"/><path d="M233,119.63c-4.33,12.82-8.26,24.48-12.19,36.14-1.08,3.19-2.53,6.31-3.14,9.58-.86,4.6-3.19,5.88-7.74,5.64-7.88-.41-7.88-.12-10.41-7.68q-6.64-20-13.34-39.9c-.3-.9-.24-2-1.53-2.5-2.64,15.37-5.36,30.68-7.85,46-.49,3-1.47,4.45-4.73,4-3.67-.51-8.81,1.63-10.69-.92-1.51-2.06.71-6.9,1.33-10.49,3.84-22.29,7.75-44.56,11.5-66.87.45-2.69,1.28-3.72,4.2-3.71,11.64,0,11.64-.06,15.26,10.9q6.92,21,13.89,41.93c.33,1,.16,2.3,1.77,3q6.14-18.35,12.23-36.53c1.78-5.32,3.53-10.65,5.3-16,.17-.54.24-1.22.61-1.56,4.19-3.76,9.22-.94,13.82-1.67,2.69-.42,2.11,2,2.37,3.53,4.15,24.51,8.24,49,12.48,73.54.61,3.55.29,5.46-4,4.78-3.4-.55-7.86,1.51-10.05-.86-1.92-2.09-1.51-6.36-2.08-9.67C237.71,147.24,235.45,134.08,233,119.63Z"/><path d="M67.63,4.06c37.67.21,66.31,28.11,67.46,63.56.23,7.09-3.72,11.93-9.94,12.19-6.52.28-10.74-4.2-10.93-11.61a44.52,44.52,0,0,0-89-.94c-.39,8.31-4.3,12.8-11,12.56-6-.21-10-4.72-10-11.26,0-28.94,20.9-55.5,49.26-62.55A60.91,60.91,0,0,1,67.63,4.06Z"/><path d="M382.75,133.3c.2,7.95,4.49,16.67,14.66,21.57C408,160,418.34,159,428.15,152.33c2.57-1.74,4.51-5.82,7.37-5.2,2.52.55,4.4,4.08,6.55,6.31,3.83,3.95,3.66,3.78-.45,7.68-18.19,17.23-48.89,14.7-62.79-.58-12.76-14-14.92-30.2-8.53-47.47,5.65-15.28,22-25.7,38.66-26,13.67-.23,25.23,4.51,35,14,1.91,1.86,1.92,2.94-.1,4.59a52.23,52.23,0,0,0-6.4,6.13c-1.78,2.06-2.84,1.64-4.63-.09-7.73-7.51-17-10.95-27.75-9.13C391.64,104.89,382.6,116.36,382.75,133.3Z"/><path d="M311.56,116c.63-5.65.63-5.65,6.86-5.65,8.7,0,8.7,0,8.7,8.78,0,16-.08,32.08.07,48.12,0,3-.75,4-3.71,3.67a33.32,33.32,0,0,0-5.91,0c-3.77.22-7.58.6-5.45-5.05a1.38,1.38,0,0,0-1.87.2c-14.64,13.2-38.57,5.75-44.51-16.08a34.54,34.54,0,0,1,2.86-26.18c8.52-15.76,27.07-19.65,41.22-8.72C310.34,115.47,310.7,116.23,311.56,116Z"/><path d="M502.6,164.5c-5.48,4.81-10.69,7.68-17,7.95-12.11.51-20.91-5.13-26.5-15.43-6-11-5.68-22.58.17-33.54,8.23-15.4,27.91-20.06,42.33-7.45.19-.15.57-.32.55-.43-.75-4.49,1.29-5.49,5.54-5.35,9.76.33,9.77.1,9.77,9.89,0,15.76-.07,31.53.06,47.3,0,2.67-.56,3.84-3.42,3.48a29.08,29.08,0,0,0-5.9,0C504.27,171.23,500.79,171.17,502.6,164.5Z"/><path d="M625.39,159.15c-8.71,11.92-23.44,16.35-38,11.77-12.65-4-20.77-15.1-21.07-28.91-.33-14.89,7.19-27,20.2-31.29,20.89-6.88,43,5.12,43.12,31.37,0,2.93-1.33,3.07-3.59,3.06-13.78-.06-27.57.09-41.36-.11-3.65-.06-3.93,1-2.73,4,4,9.91,17.4,13.5,27.19,6.69,3.24-2.25,5.5-2.12,8.51-.31C620,156.84,622.65,157.85,625.39,159.15Z"/><path d="M84.91,88.64c12.52,0,25,0,37.56,0,7.68,0,12.7,4.47,12.58,11.08-.11,6.38-5.19,10.86-12.49,10.87q-38,0-76,0c-5.72,0-9.5-2.46-11.32-7.1a11.11,11.11,0,0,1,2.71-12c2.4-2.27,5.3-2.91,8.52-2.9C59.31,88.67,72.11,88.64,84.91,88.64Z"/><path d="M84.18,172.59q-18.36,0-36.73,0c-8.19,0-12.93-4.14-12.87-11.1.06-6.69,5-10.9,12.74-10.91q37.79,0,75.56,0c9.47,0,15.08,8.69,10.69,16.4-2.22,3.88-5.66,5.63-10.13,5.61C110.35,172.56,97.26,172.59,84.18,172.59Z"/><path d="M84.65,141.55H45.82c-4.81,0-8.42-2.11-10.33-6.57a10.54,10.54,0,0,1,1.86-11.76A10.84,10.84,0,0,1,46,119.6c25.74,0,51.49,0,77.23,0,6.94,0,11.9,4.82,11.82,11.07s-5,10.81-12,10.84C110.25,141.6,97.45,141.55,84.65,141.55Z"/><path d="M340.63,128.59c0-12.68.08-25.35-.06-38,0-2.66.53-3.74,3.41-3.5,3.77.31,8.83-1.25,11,.65,2.55,2.21.79,7.4.8,11.28.08,22.67,0,45.34.12,68,0,3.12-.68,4.24-3.91,3.93-3.61-.35-8.5,1.18-10.59-.66-2.42-2.13-.72-7.12-.76-10.85C340.56,149.15,340.63,138.87,340.63,128.59Z"/><path d="M542.55,116.92c4-6.16,8.84-8.8,15.43-7.81,2.63.39,4.22,1.23,2.63,4.32a44.34,44.34,0,0,0-2,5.53c-.93,2.51-1.15,5.27-5.48,3.54-3.19-1.28-5.41,1.75-6.7,4.52a24.54,24.54,0,0,0-2,10.28c-.06,10-.2,20,0,30,.06,3.07-.92,3.85-3.79,3.63-3.62-.28-8.51,1.21-10.6-.62-2.42-2.14-.74-7.13-.76-10.87-.09-15.21,0-30.43-.11-45.64,0-2.78.72-3.86,3.5-3.47a25.4,25.4,0,0,0,3.38,0C541.94,110.35,541.94,110.35,542.55,116.92Z"/><path class="b7a4b09b-5c7b-48cb-859d-08b5b51837a6" d="M4.08,99.68A10.58,10.58,0,0,1,14.82,89.09,10.82,10.82,0,1,1,4.08,99.68Z"/><path class="ad4bea45-faee-4e4c-8cef-0bfd86bf86a1" d="M4.08,130.85a10.63,10.63,0,0,1,10.6-10.73,10.81,10.81,0,1,1-.15,21.61A10.59,10.59,0,0,1,4.08,130.85Z"/><path class="ad4bea45-faee-4e4c-8cef-0bfd86bf86a1" d="M25.44,162.09a10.57,10.57,0,0,1-10.85,10.55,10.67,10.67,0,0,1,.23-21.33A10.58,10.58,0,0,1,25.44,162.09Z"/><path class="f079f083-4e5c-40b4-b24b-d91ccb4ac5b3" d="M279.83,140.65c0-10.32,6.83-17.85,16.21-17.83s16.47,7.5,16.51,17.65c0,10.53-6.81,18-16.53,18C286.64,158.46,279.85,151,279.83,140.65Z"/><path class="f079f083-4e5c-40b4-b24b-d91ccb4ac5b3" d="M503,140.49c0,10.6-6.8,18-16.49,18-9.34,0-16.32-7.67-16.33-17.84s7.08-17.86,16.37-17.83C496.05,122.82,503,130.3,503,140.49Z"/><path class="f079f083-4e5c-40b4-b24b-d91ccb4ac5b3" d="M581.8,133c2.78-7,7.63-10.52,14.46-11.14s12.65,1.83,16.53,7.87c1.39,2.15,1.6,3.39-1.77,3.33C601.47,132.89,591.93,133,581.8,133Z"/><path class="ab7c7ec2-428c-4c37-9a7c-c33cb0764a02" d="M203.93,26.64a9.66,9.66,0,0,0-3.59-7,13.52,13.52,0,0,0-8.53-2.48c-3.68,0-6.47.72-8.37,2.14a7.29,7.29,0,0,0-2.86,6.24,4.81,4.81,0,0,0,1.91,4.17q1.9,1.38,7.65,2.73l8.41,2q6.76,1.61,9.65,4.76T211.11,48a12.46,12.46,0,0,1-5,10.41q-5,3.84-13.49,3.84-9.46,0-14.78-4.43t-5.19-12v-.36h6a10.13,10.13,0,0,0,3.81,8.11q3.64,2.86,10.15,2.86,6,0,9.14-2.07a6.82,6.82,0,0,0,3.12-6.08,6.24,6.24,0,0,0-2.05-5.15q-2-1.65-8.22-3.12l-8.42-2q-6.37-1.5-9.11-4.2a10,10,0,0,1-2.71-7.45,13.75,13.75,0,0,1,4.71-11q4.71-4.05,12.72-4.06t13,4.08q4.82,4.07,5.15,11.23Z"/><path class="ab7c7ec2-428c-4c37-9a7c-c33cb0764a02" d="M223.4,60.93V12.65h35.31v5.78H229.94V33.17h26.27V39H229.94v16.2h29.13v5.78Z"/><path class="ab7c7ec2-428c-4c37-9a7c-c33cb0764a02" d="M311.66,43.16q-1.25,8.93-6.85,14t-14.17,5.07q-10,0-15.91-6.88T268.8,36.82q0-11.65,6.16-18.57t16.54-6.92q8.17,0,13.43,4.21a17.32,17.32,0,0,1,6.3,11.59h-6.3a11.49,11.49,0,0,0-4.45-7.4,14.81,14.81,0,0,0-9.08-2.62,14.08,14.08,0,0,0-11.56,5.34q-4.3,5.34-4.3,14.37,0,9.59,4,14.61t11.57,5A13.13,13.13,0,0,0,300.43,53a17.49,17.49,0,0,0,4.93-9.83Z"/><path class="ab7c7ec2-428c-4c37-9a7c-c33cb0764a02" d="M361.1,43.22q0,8.94-5,14t-14,5q-9.3,0-14.16-4.85T323.1,43.22V12.65h6.54V42.73q0,6.74,3.19,10.23t9.29,3.5q6.11,0,9.28-3.5t3.17-10.23V12.65h6.53Z"/><path class="ab7c7ec2-428c-4c37-9a7c-c33cb0764a02" d="M375.63,12.65H398.1q7.68,0,11.69,3.33t4,9.77q0,6.34-4.17,9.92a15,15,0,0,1-2.26,1.58l1.08.52q4.4,2.53,4.57,8.51l.26,8.8a7.69,7.69,0,0,0,.56,3.12,4,4,0,0,0,1.9,1.64v1h-8a13.8,13.8,0,0,1-.53-3.08c-.17-1.67-.31-3.52-.39-5.56l-.15-3.8q-.13-4.5-2.2-6.43t-6.76-1.92h-15.5V60.93h-6.54Zm6.54,21.8h16.16q4.53,0,6.63-2c1.4-1.33,2.1-3.42,2.1-6.29s-.74-4.82-2.22-6.11-3.81-1.94-7-1.94H382.17Z"/><path class="ab7c7ec2-428c-4c37-9a7c-c33cb0764a02" d="M427.44,60.93V12.65h35.3v5.78H434V33.17h26.28V39H434v16.2H463.1v5.78Z"/><path class="ab7c7ec2-428c-4c37-9a7c-c33cb0764a02" d="M475.33,12.65h19.84q9.19,0,14.63,6.55t5.44,17.62q0,11-5.57,17.57t-15,6.54H475.33Zm6.54,42.69h11.95q7,0,10.86-4.83t3.82-13.69q0-8.89-3.67-13.75t-10.45-4.84H481.87Z"/><path class="ab7c7ec2-428c-4c37-9a7c-c33cb0764a02" d="M547.78,12.65h5.91v17.7q3.87-5.69,10-5.62a13.61,13.61,0,0,1,10.92,4.75q4,4.74,4,12.82,0,9.16-4.06,14.37a13.46,13.46,0,0,1-11.25,5.21,11.32,11.32,0,0,1-9.46-4.57l-.55-.72v4.34h-5.55Zm15.27,44.1a8,8,0,0,0,7-3.49c1.59-2.34,2.39-5.73,2.39-10.2s-.76-7.66-2.3-9.77-3.89-3.17-7.09-3.17-5.64,1.19-7.14,3.58-2.25,6.16-2.25,11.33q0,5.61,2.43,8.67A8.33,8.33,0,0,0,563.05,56.75Z"/><path class="ab7c7ec2-428c-4c37-9a7c-c33cb0764a02" d="M604.15,62.07q-3.09,8.12-5.5,10.61t-7.24,2.5a9.19,9.19,0,0,1-2.86-.36V69.34a10.62,10.62,0,0,0,3.38.52,4.17,4.17,0,0,0,3.35-1.64,24,24,0,0,0,3.06-6.14l.09-.56h0l-13-35.74h6.75l9.38,29.07h0L611,25.78h6.47Z"/></svg>